HIERARCHY
ROOT Hips
{
	OFFSET 0.000000 0.000000 0.000000
	CHANNELS 6 Xposition Yposition Zposition Zrotation Yrotation Xrotation 
	JOINT LHipJoint
	{
		OFFSET 0.000000 0.000000 0.000000
		CHANNELS 3 Zrotation Yrotation Xrotation
		JOINT LeftUpLeg
		{
			OFFSET 1.363060 -1.794630 0.839290
			CHANNELS 3 Zrotation Yrotation Xrotation
			JOINT LeftLeg
			{
				OFFSET 2.448110 -6.726130 0.000000
				CHANNELS 3 Zrotation Yrotation Xrotation
				JOINT LeftFoot
				{
					OFFSET 2.562200 -7.039590 0.000000
					CHANNELS 3 Zrotation Yrotation Xrotation
					JOINT LeftToeBase
					{
						OFFSET 0.157640 -0.433110 2.322550
						CHANNELS 3 Zrotation Yrotation Xrotation
						End Site
						{
							OFFSET 0.000000 0.000000 0.000000
						}
					}
				}
			}
		}
	}
	JOINT RHipJoint
	{
		OFFSET 0.000000 0.000000 0.000000
		CHANNELS 3 Zrotation Yrotation Xrotation
		JOINT RightUpLeg
		{
			OFFSET -1.305520 -1.794630 0.839290
			CHANNELS 3 Zrotation Yrotation Xrotation
			JOINT RightLeg
			{
				OFFSET -2.542530 -6.985550 0.000000
				CHANNELS 3 Zrotation Yrotation Xrotation
				JOINT RightFoot
				{
					OFFSET -2.568260 -7.056230 0.000000
					CHANNELS 3 Zrotation Yrotation Xrotation
					JOINT RightToeBase
					{
						OFFSET -0.164730 -0.452590 2.363150
						CHANNELS 3 Zrotation Yrotation Xrotation
						End Site
						{
							OFFSET 0.000000 0.000000 0.000000
						}
					}
				}
			}
		}
	}
}
MOTION
Frames: 33
Frame Time: 0.008333
-10.897316 17.049139 -0.534289 91.356620 89.027405 103.967473 -10.215525 4.662208 -0.487091 -6.135025 10.664497 -2.591815 -1.221500 1.754482 27.620573 0.197908 -3.002592 10.860537 -0.887200 -0.000001 -79.218400 8.964618 -0.639633 4.820749 12.201085 10.194553 -31.792547 2.628972 0.324902 10.605375 -0.916345 -4.024276 -1.678660 -1.135300 -0.000001 -33.011800
-10.684550 17.057529 -0.518006 79.759876 89.222783 92.394085 -10.525613 4.521245 -0.550652 -5.476273 11.207665 -4.128016 -0.882191 1.873832 30.916440 0.316629 -3.127910 12.959869 -1.109399 0.000000 -78.102000 8.708028 -0.898215 4.923062 12.758800 10.630533 -31.366943 2.664257 0.232671 11.317992 -0.960571 -4.101933 -2.088676 -1.101600 0.000001 -29.840900
-10.474100 17.065900 -0.502285 64.509274 89.233411 77.186831 -10.951821 4.333451 -0.603010 -4.897392 11.753907 -5.797277 -0.551236 1.958529 34.243228 0.470854 -2.897233 14.840278 -1.219600 -0.000001 -75.558000 8.334291 -1.176397 5.003868 13.338197 10.956747 -30.944313 2.735006 0.166090 11.962146 -0.975230 -4.006133 -2.624134 -1.030700 -0.000000 -26.469301
-10.266385 17.074165 -0.486537 45.970543 88.888906 58.705242 -11.514015 4.172246 -0.632509 -4.468233 12.304074 -7.567517 -0.284722 2.053436 37.507705 0.657365 -2.211735 16.369494 -1.142500 -0.000000 -71.710200 7.839280 -1.410690 5.039076 13.903507 11.189893 -30.478883 2.837579 0.143122 12.563319 -0.946216 -3.698620 -3.245485 -0.926800 0.000000 -23.067200
-10.061537 17.082216 -0.470534 26.982830 88.077692 39.787320 -12.064548 4.156966 -0.641637 -4.151969 12.899056 -9.434475 -0.149343 2.232381 40.640586 0.867378 -1.049818 17.430726 -0.837200 0.000000 -66.860500 7.375531 -1.475904 5.026809 14.502388 11.404154 -29.915492 2.962674 0.180451 13.132491 -0.868741 -3.189034 -3.897172 -0.801800 0.000000 -19.670900
-9.859543 17.090068 -0.453845 11.085550 87.050767 23.968361 -12.315356 4.261709 -0.661928 -3.816795 13.487858 -11.360776 -0.111225 2.487977 43.635121 1.080836 0.540191 17.954496 -0.304700 0.000000 -61.432200 7.189895 -1.360214 5.010118 15.203403 11.613891 -29.264439 3.091303 0.245788 13.617719 -0.765540 -2.563010 -4.546216 -0.668800 0.000000 -16.382101
-9.660130 17.097740 -0.436320 -0.831967 86.194356 12.140298 -12.271983 4.314067 -0.707602 -3.421573 13.952791 -13.302064 -0.065073 2.727102 46.502176 1.284014 2.457716 17.923226 0.401800 0.000000 -55.874000 7.240048 -1.222182 5.026632 15.961153 11.781877 -28.582009 3.214828 0.298198 13.938640 -0.671124 -1.935878 -5.210410 -0.540600 0.000000 -13.099400
-9.463120 17.105364 -0.417433 -9.168920 85.603309 3.901188 -12.127718 4.245095 -0.760729 -3.060470 14.223149 -15.226916 0.022572 2.907634 49.184698 1.478365 4.596183 17.354623 1.197300 0.000001 -50.544500 7.345630 -1.152814 5.060180 16.663511 11.880733 -27.885271 3.330637 0.334255 14.092820 -0.594075 -1.351375 -5.874154 -0.426500 -0.000000 -9.998700
-9.268091 17.113116 -0.397067 -15.083056 85.198228 -1.900946 -11.982038 4.090781 -0.800841 -2.781093 14.292154 -17.139232 0.129300 3.044369 51.620404 1.666213 6.818652 16.282568 1.975600 -0.000001 -45.645700 7.427348 -1.135921 5.096163 17.267890 11.949938 -27.161351 3.436518 0.370947 14.096729 -0.536017 -0.845130 -6.515587 -0.332100 0.000000 -7.066600
-9.074658 17.121102 -0.375123 -19.387329 84.920662 -6.072928 -11.853499 3.889100 -0.815008 -2.592883 14.154023 -19.039500 0.235114 3.152449 53.763727 1.845752 8.984368 14.762021 2.636000 0.000000 -41.231100 7.477709 -1.143262 5.130064 17.763171 12.024048 -26.403160 3.527559 0.417682 13.962341 -0.499378 -0.453556 -7.107537 -0.259300 -0.000000 -4.391100
-8.882395 17.129514 -0.351616 -22.638312 84.741878 -9.165983 -11.737308 3.662612 -0.795522 -2.485103 13.802603 -20.923185 0.328681 3.238401 55.583771 2.012457 10.965998 12.864783 3.100000 -0.000000 -37.245900 7.505965 -1.156888 5.162278 18.152346 12.127090 -25.611142 3.600192 0.478151 13.696193 -0.487237 -0.205934 -7.636805 -0.206100 0.000001 -2.009300
-8.690938 17.138457 -0.326712 -25.258933 84.646117 -11.597958 -11.625081 3.422537 -0.736970 -2.434976 13.234587 -22.784380 0.404050 3.302658 57.060237 2.161128 12.664255 10.682668 3.324799 -0.000000 -33.642000 7.521455 -1.168062 5.195634 18.447954 12.276192 -24.790158 3.653272 0.553392 13.300892 -0.501877 -0.120987 -8.098798 179.831200 0.000001 -0.088300
-8.499979 17.147996 -0.300617 -27.448960 84.621471 -13.568303 -11.512805 3.175004 -0.636362 -2.422218 12.453523 -24.608858 0.457336 3.343404 58.176708 2.287076 14.017797 8.317453 3.307700 -0.000000 -30.346600 7.529482 -1.173704 5.229222 18.660443 12.471172 -23.943546 3.687035 0.642428 12.783665 -0.541702 -0.194502 -8.489526 179.856400 -0.000001 -1.855000
-8.309391 17.158248 -0.273484 -29.249257 84.654612 -15.123893 -11.400093 2.924385 -0.493467 -2.428304 11.473621 -26.375045 0.485833 3.359097 58.920758 2.387334 15.004789 5.880705 3.083200 0.000000 -27.342200 7.532219 -1.173092 5.257886 18.800547 12.697217 -23.069722 3.703333 0.743260 12.157608 -0.601415 -0.399564 -8.809434 179.873300 0.000000 -3.260300
-8.119040 17.169141 -0.245622 -30.654885 84.728213 -16.267594 -11.287729 2.673638 -0.310358 -2.433422 10.321565 -28.062909 0.488590 3.349071 59.287028 2.461339 15.639504 3.485839 2.712000 -0.000000 -24.661400 7.529865 -1.166739 5.276181 18.882891 12.935254 -22.164955 3.706072 0.854113 11.435796 -0.673788 -0.695604 -9.065868 179.884900 -0.000000 -4.347999
-7.928869 17.180618 -0.217309 -31.578400 84.823662 -16.921403 -11.178408 2.425321 -0.091081 -2.422331 9.034690 -29.655514 0.466483 3.314109 59.277577 2.511330 15.967428 1.236125 2.265101 -0.000000 -22.352300 7.520747 -1.156189 5.277888 18.921585 13.160567 -21.223932 3.700081 0.973033 10.633579 -0.749725 -1.032340 -9.266143 179.893600 -0.000000 -5.165100
-7.738873 17.192502 -0.188757 -31.783638 84.919260 -16.862856 -11.078039 2.182821 0.157628 -2.390051 7.661533 -31.135654 0.421561 3.257129 58.899540 2.542342 16.057970 -0.783963 1.809400 -0.000000 -20.445600 7.500375 -1.143058 5.254631 18.926866 13.342285 -20.237114 3.690693 1.098064 9.769927 -0.818492 -1.350641 -9.419946 179.901200 -0.000000 -5.775900
-7.549037 17.204546 -0.160247 -31.034219 84.994825 -15.867802 -10.993381 1.947941 0.427556 -2.338094 6.256064 -32.491749 0.357558 3.181244 58.167725 2.561585 15.993291 -2.516806 1.395200 -0.000000 -18.947200 7.462942 -1.130351 5.199682 18.907800 13.451431 -19.196527 3.683261 1.227108 8.863854 -0.870064 -1.595148 -9.537290 179.909500 0.000000 -6.249200
-7.359361 17.216451 -0.131963 -29.147303 85.034473 -13.765186 -10.931353 1.719204 0.709179 -2.275776 4.873117 -33.717844 0.279307 3.088442 57.104012 2.577296 15.856549 -3.938508 1.051599 -0.000000 -17.799800 7.402261 -1.123050 5.108751 18.870066 13.462787 -18.098004 3.682181 1.357617 7.932516 -0.896346 -1.719786 -9.627990 179.919800 0.000000 -6.657501
-7.169721 17.227805 -0.104075 -26.162815 85.029206 -10.602552 -10.894731 1.490297 0.992061 -2.215475 3.561974 -34.812585 0.192833 2.977470 55.735987 2.597439 15.720934 -5.054812 0.788500 -0.000000 -16.903800 7.316458 -1.128703 4.981742 18.818744 13.358207 -16.944007 3.690084 1.485866 6.989641 -0.892440 -1.693850 -9.700366 179.932700 -0.000001 -7.066600
-6.979991 17.238253 -0.076722 -22.391631 84.976663 -6.694684 -10.877474 1.253202 1.265251 -2.169899 2.364797 -35.779325 0.104259 2.844407 54.094227 2.628335 15.640449 -5.893986 0.602700 0.000000 -16.148199 7.213540 -1.154747 4.823164 18.759367 13.127870 -15.744197 3.707111 1.606994 6.046441 -0.856948 -1.504019 -9.760564 179.948099 0.000000 -7.529600
-6.789975 17.247411 -0.049982 -18.340209 84.874651 -2.548243 -10.863675 1.005479 1.518676 -2.149264 1.317248 -36.623994 0.017904 2.685880 52.207534 2.673696 15.644928 -6.496422 0.484200 0.000000 -15.443000 7.112905 -1.203758 4.641151 18.698249 12.771883 -14.513664 3.731382 1.716232 5.114568 -0.791084 -1.151694 -9.810319 179.964800 0.000001 -8.081600
-6.599361 17.254948 -0.023943 -14.550071 84.714736 1.300921 -10.834029 0.754803 1.745415 -2.159199 0.452078 -37.361125 -0.065577 2.502929 50.101144 2.733928 15.737009 -6.906571 0.421500 -0.000000 -14.737400 7.037189 -1.270923 4.446576 18.643452 12.305647 -13.270922 3.760498 1.811085 4.208036 -0.698372 -0.652756 -9.845973 179.980999 -0.000000 -8.730600
-6.407898 17.260597 0.001352 -11.348162 84.486517 4.532882 -10.778141 0.515025 1.942943 -2.208341 -0.205573 -38.006450 -0.149122 2.300707 47.792454 2.806051 15.896228 -7.162882 0.404400 0.000000 -14.037799 6.999232 -1.348148 4.248538 18.597076 11.750950 -12.034304 3.792436 1.891311 3.344808 -0.583328 -0.029464 -9.860490 179.994500 0.000001 -9.454600
-6.215380 17.264290 0.025963 -8.803907 84.188209 7.083317 -10.697226 0.298133 2.111614 -2.310258 -0.642876 -38.569513 -0.237705 2.084740 45.290579 2.883507 16.082468 -7.295840 0.424800 -0.000001 -13.379100 6.999555 -1.429735 4.051742 18.553299 11.125595 -10.818980 3.825534 1.956973 2.545421 -0.450622 0.695862 -9.846872 -179.996100 0.000000 -10.213400
-6.021538 17.265960 0.049802 -6.924097 83.825667 8.956553 -10.597880 0.111285 2.254950 -2.470790 -0.856987 -39.069073 -0.336198 1.859451 42.607512 2.956200 16.238073 -7.322626 0.477400 -0.000001 -12.852200 7.030614 -1.512991 3.864289 18.510813 10.463064 -9.645418 3.858540 2.008648 1.826549 -0.307512 1.485224 -9.796033 -179.991700 -0.000000 -10.921900
-5.826251 17.265682 0.072831 -5.598215 83.415171 10.269287 -10.489483 -0.042871 2.376108 -2.698532 -0.856806 -39.513190 -0.449684 1.627027 39.752424 3.011216 16.297455 -7.248521 0.558100 0.000000 -12.559300 7.082718 -1.598328 3.689321 18.465851 9.784468 -8.528291 3.890278 2.045513 1.205641 -0.160055 2.307267 -9.703383 -179.991800 -0.000000 -11.496500
-5.629457 17.263598 0.094936 -4.728713 82.976231 11.124914 -10.380304 -0.164226 2.478225 -2.997571 -0.657754 -39.910491 -0.583064 1.388682 36.740005 3.034105 16.194055 -7.069093 0.663200 0.000000 -12.610900 7.146493 -1.686871 3.530130 18.419774 9.114190 -7.480224 3.919801 2.066498 0.697787 -0.014507 3.126890 -9.565944 -179.995000 -0.000000 -11.842900
-5.431312 17.259993 0.116111 -4.191646 82.529825 11.644777 -10.276969 -0.254153 2.562325 -3.374043 -0.281909 -40.257427 -0.741628 1.144860 33.589621 3.010292 15.868290 -6.780189 0.785700 0.000000 -13.045800 7.215490 -1.779747 3.383838 18.372542 8.457962 -6.504563 3.946449 2.069636 0.319661 0.125138 3.922776 -9.389005 -179.999000 0.000000 -11.915800
-5.231887 17.255003 0.136113 -3.943854 82.092366 11.874682 -10.184069 -0.315404 2.630032 -3.824955 0.246328 -40.560709 -0.929152 0.896753 30.336571 2.927192 15.274003 -6.372857 0.916900 -0.000000 -13.941000 7.283187 -1.877024 3.251662 18.331106 7.837676 -5.605280 3.969752 2.054129 0.083516 0.253634 4.662699 -9.179120 179.997900 -0.000000 -11.653200
-5.031484 17.248963 0.154889 -3.897134 81.678210 11.892909 -10.104145 -0.351991 2.680276 -4.350991 0.895680 -40.810115 -1.148600 0.645495 27.026152 2.776361 14.384889 -5.856355 1.039800 -0.000000 -15.221401 7.346967 -1.978225 3.125949 18.295683 7.244183 -4.774975 3.989533 2.018235 0.004948 0.369404 5.339596 -8.953164 179.997300 0.000001 -11.082900
-4.830252 17.241998 0.172235 -4.031582 81.295559 11.718514 -10.037856 -0.369991 2.714205 -4.939060 1.630029 -41.011501 -1.398653 0.393705 23.724273 2.555728 13.197237 -5.244135 1.136700 -0.000000 -16.865200 7.402995 -2.081863 3.005565 18.272226 6.690997 -4.010982 4.005421 1.962056 0.092547 0.468925 5.931469 -8.728559 179.999301 0.000000 -10.229500
-4.628565 17.234382 0.188221 -4.275820 80.950307 11.411049 -9.983438 -0.376183 2.731691 -5.576171 2.402531 -41.152628 -1.674450 0.144273 20.504703 2.271132 11.732510 -4.575600 1.185800 0.000000 -18.720700 7.451938 -2.186197 2.880538 18.255289 6.157916 -3.302007 4.017017 1.884391 0.358487 0.552827 6.445365 -8.526854 -179.997000 0.000000 -9.171600
